<?xml version="1.0" encoding="UTF-8" standalone="no"?><!-- Generator: Gravit.io -->
<svg xmlns="http://www.w3.org/2000/svg" xmlns:xlink="http://www.w3.org/1999/xlink" style="isolation:isolate"
     viewBox="0 0 400 120" width="400pt" height="120pt">
    <defs>
        <clipPath id="_clipPath_m4wi1GkhMygoRFSrKCbasTNqf0amMEzP">
            <rect width="400" height="120"/>
        </clipPath>
    </defs>
    <g clip-path="url(#_clipPath_m4wi1GkhMygoRFSrKCbasTNqf0amMEzP)">
        <rect width="400" height="120" style="fill:rgb(0,0,0)" fill-opacity="0"/>
        <clipPath id="_clipPath_UXu3YxdINDyWZtoSzKYNvixtDNDkmvhW">
            <rect x="-42" y="-10" width="475.197" height="336" transform="matrix(1,0,0,1,0,0)" fill="rgb(255,255,255)"/>
        </clipPath>
        <g clip-path="url(#_clipPath_UXu3YxdINDyWZtoSzKYNvixtDNDkmvhW)">
            <clipPath id="_clipPath_LK0n4hWIG3msfer05USBfWz16ClEvC5E">
                <path d=" M -39.598 -83 L 435.598 -83 L 435.598 253 L -39.598 253 L -39.598 -83 Z "
                      fill="rgb(255,255,255)"/>
            </clipPath>
            <g clip-path="url(#_clipPath_LK0n4hWIG3msfer05USBfWz16ClEvC5E)">
                <path
                    d=" M 32.74 84.199 C 34.864 84.199 36.856 83.801 38.717 83.004 C 40.576 82.207 42.207 81.108 43.612 79.702 C 45.016 78.299 46.117 76.648 46.914 74.75 C 47.711 72.854 48.11 70.842 48.11 68.716 C 48.11 66.592 47.711 64.6 46.914 62.739 C 46.117 60.88 45.016 59.249 43.612 57.843 C 42.207 56.439 40.576 55.338 38.717 54.542 C 36.856 53.744 34.864 53.346 32.74 53.346 L 17.256 53.346 L 17.256 68.716 C 17.256 70.842 17.655 72.854 18.451 74.75 C 19.249 76.648 20.348 78.299 21.754 79.702 C 23.157 81.108 24.807 82.207 26.706 83.004 C 28.602 83.801 30.614 84.199 32.74 84.199 Z  M 42.702 45.206 C 45.776 46.535 48.469 48.356 50.785 50.671 C 53.099 52.987 54.921 55.68 56.249 58.754 C 57.576 61.828 58.242 65.149 58.242 68.716 C 58.242 72.208 57.576 75.509 56.249 78.621 C 54.921 81.734 53.099 84.466 50.785 86.818 C 48.469 89.171 45.776 91.013 42.702 92.34 C 39.628 93.668 36.306 94.333 32.74 94.333 C 29.248 94.333 25.946 93.668 22.835 92.34 C 19.722 91.013 16.99 89.171 14.638 86.818 C 12.284 84.466 10.443 81.734 9.116 78.621 C 7.787 75.509 7.123 72.208 7.123 68.716 L 7.123 22.721 L 17.256 22.721 L 17.256 43.214 L 32.74 43.214 C 36.306 43.214 39.628 43.879 42.702 45.206 Z "
                    fill="rgb(191,53,61)"/>
                <path
                    d=" M 71.335 68.716 C 71.335 70.841 71.733 72.854 72.53 74.75 C 73.327 76.648 74.427 78.299 75.832 79.702 C 77.235 81.108 78.886 82.207 80.784 83.004 C 82.681 83.801 84.693 84.199 86.818 84.199 C 88.942 84.199 90.954 83.801 92.852 83.004 C 94.749 82.207 96.4 81.108 97.805 79.702 C 99.209 78.299 100.31 76.648 101.106 74.75 C 101.904 72.854 102.302 70.841 102.302 68.716 C 102.302 66.592 101.904 64.6 101.106 62.739 C 100.31 60.88 99.209 59.248 97.805 57.843 C 96.4 56.44 94.749 55.338 92.852 54.542 C 90.954 53.744 88.942 53.346 86.818 53.346 C 84.693 53.346 82.681 53.744 80.784 54.542 C 78.886 55.338 77.235 56.44 75.832 57.843 C 74.427 59.248 73.327 60.88 72.53 62.739 C 71.733 64.6 71.335 66.592 71.335 68.716 Z  M 61.316 68.716 C 61.316 65.15 61.98 61.828 63.308 58.754 C 64.635 55.68 66.457 52.986 68.773 50.671 C 71.087 48.356 73.8 46.534 76.913 45.206 C 80.025 43.879 83.326 43.214 86.818 43.214 C 90.385 43.214 93.706 43.879 96.78 45.206 C 99.854 46.534 102.567 48.356 104.921 50.671 C 107.272 52.986 109.113 55.68 110.442 58.754 C 111.769 61.828 112.434 65.15 112.434 68.716 C 112.434 72.208 111.769 75.509 110.442 78.62 C 109.113 81.734 107.272 84.466 104.921 86.818 C 102.567 89.172 99.854 91.013 96.78 92.34 C 93.706 93.668 90.385 94.332 86.818 94.332 C 83.326 94.332 80.025 93.668 76.913 92.34 C 73.8 91.013 71.087 89.172 68.773 86.818 C 66.457 84.466 64.635 81.734 63.308 78.62 C 61.98 75.509 61.316 72.208 61.316 68.716 Z "
                    fill="rgb(192,53,63)"/>
                <path
                    d=" M 125.867 68.716 C 125.867 70.841 126.266 72.854 127.063 74.75 C 127.86 76.648 128.959 78.299 130.364 79.702 C 131.768 81.108 133.419 82.207 135.317 83.004 C 137.214 83.801 139.226 84.199 141.351 84.199 C 143.475 84.199 145.487 83.801 147.385 83.004 C 149.282 82.207 150.933 81.108 152.337 79.702 C 153.741 78.299 154.842 76.648 155.639 74.75 C 156.436 72.854 156.834 70.841 156.834 68.716 C 156.834 66.592 156.436 64.6 155.639 62.739 C 154.842 60.88 153.741 59.248 152.337 57.843 C 150.933 56.44 149.282 55.338 147.385 54.542 C 145.487 53.744 143.475 53.346 141.351 53.346 C 139.226 53.346 137.214 53.744 135.317 54.542 C 133.419 55.338 131.768 56.44 130.364 57.843 C 128.959 59.248 127.86 60.88 127.063 62.739 C 126.266 64.6 125.867 66.592 125.867 68.716 Z  M 115.849 68.716 C 115.849 65.15 116.512 61.828 117.841 58.754 C 119.168 55.68 120.99 52.986 123.306 50.671 C 125.62 48.356 128.333 46.534 131.446 45.206 C 134.558 43.879 137.859 43.214 141.351 43.214 C 144.918 43.214 148.239 43.879 151.312 45.206 C 154.386 46.534 157.1 48.356 159.453 50.671 C 161.805 52.986 163.646 55.68 164.975 58.754 C 166.302 61.828 166.967 65.15 166.967 68.716 C 166.967 72.208 166.302 75.509 164.975 78.62 C 163.646 81.734 161.805 84.466 159.453 86.818 C 157.1 89.172 154.386 91.013 151.312 92.34 C 148.239 93.668 144.918 94.332 141.351 94.332 C 137.859 94.332 134.558 93.668 131.446 92.34 C 128.333 91.013 125.62 89.172 123.306 86.818 C 120.99 84.466 119.168 81.734 117.841 78.62 C 116.512 75.509 115.849 72.208 115.849 68.716 Z "
                    fill="rgb(192,53,63)"/>
                <path
                    d=" M 216.377 42.986 L 216.377 53.118 L 185.523 53.118 C 184.081 53.118 182.865 53.613 181.88 54.598 C 180.893 55.586 180.4 56.801 180.4 58.242 C 180.4 59.684 180.893 60.917 181.88 61.942 C 182.865 62.966 184.081 63.479 185.523 63.479 L 206.016 63.479 C 208.14 63.479 210.132 63.877 211.993 64.674 C 213.852 65.471 215.483 66.553 216.889 67.919 C 218.293 69.285 219.393 70.899 220.191 72.758 C 220.987 74.619 221.386 76.611 221.386 78.734 C 221.386 80.861 220.987 82.853 220.191 84.712 C 219.393 86.573 218.293 88.204 216.889 89.607 C 215.483 91.013 213.852 92.112 211.993 92.909 C 210.132 93.706 208.14 94.104 206.016 94.104 L 170.264 94.104 L 170.264 83.83 L 206.016 83.972 C 207.533 83.972 208.786 83.479 209.773 82.492 C 210.759 81.506 211.253 80.254 211.253 78.734 C 211.253 77.293 210.759 76.079 209.773 75.092 C 208.786 74.106 207.533 73.611 206.016 73.611 L 185.523 73.611 C 183.397 73.611 181.405 73.213 179.546 72.416 C 177.685 71.619 176.074 70.52 174.708 69.114 C 173.342 67.711 172.26 66.08 171.463 64.219 C 170.666 62.36 170.268 60.368 170.268 58.242 C 170.268 56.118 170.666 54.125 171.463 52.264 C 172.26 50.406 173.342 48.793 174.708 47.426 C 176.074 46.06 177.685 44.978 179.546 44.181 C 181.405 43.385 183.397 42.986 185.523 42.986 L 216.377 42.986 Z "
                    fill="rgb(191,53,61)"/>
                <path
                    d=" M 255.199 83.972 L 255.199 94.104 L 250.19 94.104 C 246.698 94.104 243.396 93.441 240.285 92.112 C 237.172 90.785 234.439 88.944 232.088 86.591 C 229.734 84.239 227.893 81.506 226.566 78.393 C 225.237 75.282 224.574 71.98 224.574 68.488 L 224.574 22.492 L 234.706 22.492 L 234.706 43.214 L 255.199 43.214 L 254.922 53.089 L 234.426 53.105 L 234.706 68.488 C 234.706 70.614 235.105 72.626 235.901 74.522 C 236.698 76.42 237.798 78.071 239.203 79.475 C 240.607 80.88 242.258 81.979 244.156 82.776 C 246.052 83.573 248.064 83.972 250.19 83.972 L 255.199 83.972 Z "
                    fill="rgb(191,53,61)"/>
                <path
                    d=" M 268.861 68.716 C 268.861 70.841 269.259 72.854 270.055 74.75 C 270.853 76.648 271.952 78.299 273.357 79.702 C 274.761 81.108 276.412 82.207 278.31 83.004 C 280.206 83.801 282.219 84.199 284.344 84.199 C 286.468 84.199 288.479 83.801 290.378 83.004 C 292.274 82.207 293.926 81.108 295.33 79.702 C 296.734 78.299 297.835 76.648 298.632 74.75 C 299.429 72.854 299.827 70.841 299.827 68.716 C 299.827 66.592 299.429 64.6 298.632 62.739 C 297.835 60.88 296.734 59.248 295.33 57.843 C 293.926 56.44 292.274 55.338 290.378 54.542 C 288.479 53.744 286.468 53.346 284.344 53.346 C 282.219 53.346 280.206 53.744 278.31 54.542 C 276.412 55.338 274.761 56.44 273.357 57.843 C 271.952 59.248 270.853 60.88 270.055 62.739 C 269.259 64.6 268.861 66.592 268.861 68.716 Z  M 258.842 68.716 C 258.842 65.15 259.505 61.828 260.834 58.754 C 262.161 55.68 263.983 52.986 266.299 50.671 C 268.613 48.356 271.326 46.534 274.439 45.206 C 277.551 43.879 280.852 43.214 284.344 43.214 C 287.91 43.214 291.232 43.879 294.305 45.206 C 297.379 46.534 300.093 48.356 302.446 50.671 C 304.798 52.986 306.638 55.68 307.968 58.754 C 309.295 61.828 309.96 65.15 309.96 68.716 C 309.96 72.208 309.295 75.509 307.968 78.62 C 306.638 81.734 304.798 84.466 302.446 86.818 C 300.093 89.172 297.379 91.013 294.305 92.34 C 291.232 93.668 287.91 94.332 284.344 94.332 C 280.852 94.332 277.551 93.668 274.439 92.34 C 271.326 91.013 268.613 89.172 266.299 86.818 C 263.983 84.466 262.161 81.734 260.834 78.62 C 259.505 75.509 258.842 72.208 258.842 68.716 Z "
                    fill="rgb(191,53,61)"/>
                <path
                    d=" M 344.114 42.986 L 344.114 53.118 L 338.99 53.118 C 336.864 53.118 334.872 53.517 333.013 54.314 C 331.153 55.111 329.522 56.212 328.118 57.616 C 326.713 59.021 325.613 60.652 324.816 62.511 C 324.019 64.372 323.621 66.364 323.621 68.488 L 323.621 94.104 L 313.374 94.104 L 313.374 68.488 C 313.374 64.921 314.038 61.6 315.366 58.526 C 316.694 55.452 318.535 52.759 320.888 50.443 C 323.24 48.129 325.973 46.307 329.085 44.978 C 332.197 43.651 335.499 42.986 338.99 42.986 L 344.114 42.986 Z "
                    fill="rgb(191,53,61)"/>
                <path
                    d=" M 361.76 57.787 C 358.723 60.823 357.205 64.466 357.205 68.716 C 357.205 71.07 357.736 73.309 358.799 75.433 C 359.71 74.523 361.094 73.138 362.955 71.278 C 364.814 69.419 366.787 67.446 368.875 65.357 C 370.962 63.271 372.974 61.278 374.91 59.38 C 376.845 57.483 378.343 56.004 379.407 54.94 C 376.521 53.499 373.466 53.005 370.242 53.46 C 367.014 53.916 364.188 55.358 361.76 57.787 Z  M 387.148 76.116 L 394.321 83.289 L 390.791 86.818 C 388.361 89.248 385.592 91.107 382.48 92.397 C 379.367 93.688 376.105 94.332 372.689 94.332 C 369.274 94.332 366.01 93.688 362.898 92.397 C 359.785 91.107 357.015 89.248 354.588 86.818 C 352.083 84.314 350.222 81.486 349.009 78.336 C 347.793 75.188 347.187 71.981 347.187 68.716 C 347.187 65.453 347.793 62.265 349.009 59.153 C 350.222 56.041 352.083 53.232 354.588 50.727 C 357.092 48.223 359.918 46.344 363.069 45.092 C 366.218 43.84 369.425 43.214 372.689 43.214 C 375.952 43.214 379.159 43.84 382.309 45.092 C 385.458 46.344 388.287 48.223 390.791 50.727 L 394.321 54.257 L 365.972 82.605 C 368.856 84.048 371.91 84.524 375.137 84.029 C 378.362 83.536 381.189 82.076 383.619 79.646 L 387.148 76.116 Z "
                    fill="rgb(191,53,61)"/>
            </g>
        </g>
    </g>
</svg>
